<?xml version="1.0" encoding="UTF-8" standalone="no"?>
<!-- Created with Inkscape (http://www.inkscape.org/) -->

<svg
   xmlns:dc="http://purl.org/dc/elements/1.1/"
   xmlns:cc="http://creativecommons.org/ns#"
   xmlns:rdf="http://www.w3.org/1999/02/22-rdf-syntax-ns#"
   xmlns:svg="http://www.w3.org/2000/svg"
   xmlns="http://www.w3.org/2000/svg"
   version="1.1"
   width="61.609001"
   height="61.609001"
   viewBox="0 0 61.609 61.609"
   id="Layer_1"
   xml:space="preserve"><metadata
     id="metadata11"><rdf:RDF><cc:Work
         rdf:about=""><dc:format>image/svg+xml</dc:format><dc:type
           rdf:resource="http://purl.org/dc/dcmitype/StillImage" /><dc:title></dc:title></cc:Work></rdf:RDF></metadata><defs
     id="defs9" /><g
     transform="translate(491.78471,169.30575)"
     id="g27_6_"
     style="fill:#ffffff;stroke:#ffffff;stroke-opacity:1"><g
       id="path29_8_"
       style="fill:#ffffff;stroke:#ffffff;stroke-opacity:1"><path
         d="m -430.175,-138.5 c 0,-1.435 -0.1,-2.842 -0.288,-4.221 l -5.292,-1.769 c -0.645,-2.729 -1.718,-5.295 -3.15,-7.615 l 2.486,-4.989 c -1.706,-2.251 -3.717,-4.26 -5.968,-5.968 l -4.989,2.488 c -2.321,-1.432 -4.885,-2.508 -7.615,-3.152 l -1.767,-5.289 c -1.384,-0.189 -2.791,-0.291 -4.221,-0.291 -1.435,0 -2.84,0.102 -4.221,0.291 l -1.769,5.289 c -2.731,0.645 -5.297,1.721 -7.618,3.152 l -4.986,-2.488 c -2.251,1.708 -4.263,3.717 -5.968,5.968 l 2.485,4.989 c -1.432,2.32 -2.505,4.887 -3.152,7.615 l -5.286,1.769 c -0.192,1.379 -0.291,2.786 -0.291,4.221 0,1.433 0.099,2.84 0.291,4.219 l 5.286,1.771 c 0.647,2.729 1.721,5.295 3.152,7.616 l -2.485,4.986 c 1.705,2.251 3.717,4.263 5.968,5.97 l 4.986,-2.488 c 2.321,1.435 4.887,2.508 7.618,3.152 l 1.766,5.289 c 1.384,0.189 2.789,0.289 4.222,0.289 1.432,0 2.839,-0.1 4.221,-0.289 l 1.769,-5.289 c 2.73,-0.645 5.294,-1.718 7.615,-3.152 l 4.986,2.488 c 2.254,-1.707 4.265,-3.719 5.971,-5.97 l -2.488,-4.986 c 1.435,-2.321 2.508,-4.888 3.152,-7.616 l 5.289,-1.771 c 0.191,-1.379 0.291,-2.786 0.291,-4.219 z m -9.753,0 c 0,11.628 -9.425,21.054 -21.053,21.054 -11.628,0 -21.054,-9.426 -21.054,-21.054 0,-11.628 9.426,-21.056 21.054,-21.056 11.628,0 21.053,9.428 21.053,21.056 z"
         id="path5"
         style="fill:#ffffff;stroke:#ffffff;stroke-opacity:1" /></g></g><path
     d="m 38.466301,12.427432 -4.958095,1.573501 c 0,0 0.0633,0.159319 0.172156,0.451054 0.108857,0.291746 0.264817,0.717381 0.426948,1.246409 0.08765,0.286005 0.174084,0.604568 0.258228,0.946853 -0.934744,-0.121109 -2.008117,-0.23454 -3.15045,-0.330539 -1.550198,-0.130244 -2.976112,-0.206445 -4.111086,-0.227235 0.103911,-0.561609 0.211104,-1.021092 0.29266,-1.339379 0.08737,-0.340974 0.144611,-0.526804 0.144611,-0.526804 l -5.102705,-1.012266 c 0,0 -0.03334,0.240081 -0.07919,0.674851 -0.04585,0.434771 -0.100715,1.06317 -0.127401,1.842065 -0.02668,0.778894 -0.02241,1.707336 0.05509,2.730399 0.07751,1.023054 0.226375,2.143241 0.482037,3.295061 0.231961,1.034589 0.549477,2.085187 0.946863,3.112581 0.397386,1.027405 0.874465,2.028378 1.408231,2.964522 0.397287,0.697416 0.826008,1.362528 1.270517,1.979799 0.44451,0.617272 0.905811,1.189557 1.363476,1.707789 0.30164,0.341777 0.610474,0.665794 0.919307,0.967511 0.03476,0.03395 0.06734,0.06558 0.103294,0.09986 0.05465,0.0521 0.11234,0.107238 0.172157,0.161821 0.02535,0.02313 0.05236,0.04907 0.08263,0.07576 0.008,0.007 0.01869,0.01295 0.02754,0.02065 0.0022,0.0019 0.0046,0.0049 0.0068,0.0069 0.0011,6.29e-4 0.0026,-0.0011 0.0034,0 0.0011,6.29e-4 -0.0011,0.0023 0,0.0034 0.0023,0.0019 0.0045,0.0049 0.0068,0.0069 0.0023,0.002 0.0056,0.0028 0.01035,0.0069 0.0099,0.0086 0.02341,0.02135 0.03788,0.03443 0.05465,0.04944 0.113386,0.103635 0.175594,0.165269 0.21841,0.21636 0.435993,0.463483 0.657642,0.736828 0.108383,0.133825 0.214905,0.276827 0.320204,0.420061 -0.436554,-0.08979 -0.980755,-0.157061 -1.576949,-0.182491 -0.830712,-0.03542 -1.57544,0.01667 -2.058987,0.123953 0.125088,-0.130134 0.252566,-0.253999 0.382193,-0.371858 0.230331,-0.208911 0.475514,-0.403313 0.719606,-0.581882 0.0887,-0.06483 0.186061,-0.13367 0.289222,-0.206587 0.05361,-0.03531 0.154528,-0.106191 0.296109,-0.220359 l -2.086532,-2.506592 c 0.02383,-0.01604 -0.0034,6.6e-5 -0.07919,0.05509 -0.09194,0.06341 -0.192947,0.131864 -0.306443,0.210025 -0.307181,0.211325 -0.634151,0.444058 -0.967511,0.709294 -0.436026,0.346197 -0.875324,0.739902 -1.298062,1.180985 -0.422727,0.441072 -0.826569,0.931196 -1.198206,1.466769 -0.479767,0.700039 -0.886738,1.463321 -1.201643,2.25525 -0.314905,0.791928 -0.537249,1.612339 -0.671415,2.420509 -0.153711,0.970618 -0.197948,1.895456 -0.179042,2.730399 0.01892,0.834921 0.09961,1.577754 0.192815,2.193262 0.09321,0.61552 0.198037,1.104521 0.275449,1.439225 0.07742,0.334704 0.127401,0.516463 0.127401,0.516463 l 4.923663,-1.676801 c 0,0 -0.06214,-0.131366 -0.16527,-0.371856 -0.08201,-0.191218 -0.191977,-0.455065 -0.309881,-0.77126 0.887885,0.402146 1.922584,0.840783 3.04027,1.28429 1.50888,0.598728 2.908164,1.101524 4.011241,1.452993 -0.07972,0.372882 -0.161975,0.717678 -0.247905,1.029499 -0.163165,0.592106 -0.324887,1.066022 -0.440719,1.39102 -0.115832,0.324998 -0.185928,0.502685 -0.185928,0.502685 l 4.985638,1.477104 c 0,0 0.0563,-0.232138 0.141163,-0.654193 0.08487,-0.422044 0.19634,-1.032595 0.29267,-1.797309 0.09633,-0.764703 0.176498,-1.683096 0.185929,-2.702851 0.0095,-1.019748 -0.05188,-2.140905 -0.223808,-3.308834 -0.15282,-1.016497 -0.394797,-2.056141 -0.726493,-3.074699 -0.331696,-1.01857 -0.753697,-2.015576 -1.24641,-2.950761 -0.359462,-0.682234 -0.756869,-1.332283 -1.177547,-1.938471 -0.420678,-0.606199 -0.864174,-1.168513 -1.315272,-1.680243 -0.291811,-0.331311 -0.593165,-0.648101 -0.902098,-0.943427 -0.08785,-0.08397 -0.181543,-0.168553 -0.278898,-0.254779 -0.02573,-0.02278 -0.0554,-0.04955 -0.08607,-0.07576 -0.0057,-0.0049 -0.01244,-0.01038 -0.02066,-0.01721 0,0 -0.003,-0.0034 -0.0034,-0.0034 -0.0019,-0.0017 -0.0043,-0.0011 -0.0068,-0.0035 -0.01156,-0.0099 -0.02236,-0.02394 -0.03788,-0.03787 -0.03658,-0.03284 -0.07587,-0.06725 -0.113617,-0.103305 -0.02484,-0.02371 -0.04968,-0.04674 -0.07575,-0.0723 -0.2313,-0.226839 -0.466083,-0.488945 -0.705845,-0.778145 -0.36258,-0.437755 -0.719034,-0.928894 -1.053596,-1.463332 -0.265588,-0.424247 -0.51747,-0.874872 -0.750599,-1.346254 0.464451,0.0401 1.074055,0.02698 1.738781,-0.04477 0.67018,-0.07233 1.271839,-0.194246 1.718112,-0.333977 -0.05644,0.05585 -0.111425,0.114047 -0.168708,0.168708 -0.330297,0.313472 -0.687224,0.611487 -1.050158,0.905546 -0.271228,0.218608 -0.587291,0.463868 -0.919307,0.7506 l 2.138173,2.534137 c 0.216338,-0.175936 0.496999,-0.369301 0.826348,-0.609438 0.411809,-0.297684 0.844551,-0.620522 1.28429,-0.981284 1.07367,-0.87713 2.117095,-1.954921 2.971408,-3.236533 0.551912,-0.841565 0.999992,-1.745128 1.339379,-2.664975 0.339387,-0.91986 0.567062,-1.856278 0.698948,-2.768269 0.157778,-1.137189 0.188254,-2.210407 0.151498,-3.167671 -0.03675,-0.957265 -0.13659,-1.800725 -0.247905,-2.496268 -0.111304,-0.695533 -0.233009,-1.243645 -0.320205,-1.618256 -0.08721,-0.374622 -0.141173,-0.575006 -0.141173,-0.575006 z m -11.500024,4.510487 c 1.131977,0.172223 2.576787,0.339013 4.155841,0.471714 1.263708,0.10618 2.444197,0.176563 3.453455,0.210025 0.120295,0.693229 0.191702,1.45639 0.161822,2.2518 -0.0011,0.02881 -0.0024,0.05714 -0.0034,0.08608 -1.093756,-0.154351 -2.530357,-0.297166 -4.111086,-0.395965 -1.443764,-0.09024 -2.770615,-0.127224 -3.832188,-0.120515 -0.0011,-0.363427 0.01102,-0.714857 0.03098,-1.053583 0.03073,-0.521051 0.08266,-1.00505 0.144611,-1.44956 z m -0.151497,3.377707 c 1.039481,0.134762 2.331461,0.25976 3.739229,0.34775 1.573555,0.09835 3.011987,0.13345 4.114523,0.117067 -0.04316,0.349347 -0.103458,0.701801 -0.189366,1.053594 -0.05494,0.224999 -0.122707,0.449346 -0.196263,0.671414 -0.882629,-0.08685 -2.240177,-0.105277 -3.763326,-0.03444 -1.320891,0.06145 -2.516099,0.18032 -3.377707,0.320216 -0.123136,-0.583832 -0.211611,-1.164315 -0.268562,-1.731885 -0.02579,-0.250703 -0.04501,-0.498817 -0.05853,-0.743714 z m 7.185787,2.926642 c -0.07773,0.176497 -0.160675,0.349656 -0.251342,0.519916 -0.324888,0.625503 -0.75146,1.221058 -1.232637,1.773214 -0.371362,-0.176222 -1.33527,-0.230662 -2.451503,-0.110181 -0.796313,0.08595 -1.496495,0.243575 -1.952254,0.416612 -0.304063,-0.703597 -0.560606,-1.442077 -0.760925,-2.186387 -0.007,-0.02631 -0.01372,-0.05285 -0.02066,-0.07919 0.856351,0.05039 1.98901,0.05458 3.236533,-0.0035 1.350662,-0.06281 2.56718,-0.186457 3.432786,-0.330539 z m -7.795225,11.424285 c 0.34256,0.2313 1.307031,0.426342 2.451502,0.47514 0.885978,0.03779 1.670579,-0.02226 2.148507,-0.1446 0.04228,0.06808 0.08608,0.133582 0.127401,0.203139 0.301618,0.507775 0.576296,1.05496 0.816014,1.625152 0.03312,0.07886 0.06824,0.157789 0.09986,0.237582 -0.731429,-0.165766 -1.77016,-0.314685 -2.926652,-0.409737 -1.771064,-0.14557 -3.286643,-0.113068 -3.859745,0.05509 0.108363,-0.314046 0.238859,-0.618947 0.392516,-0.908984 0.209077,-0.402135 0.467989,-0.78274 0.750601,-1.132782 z m -1.242961,2.365419 c 0.465488,0.269819 2.013603,0.56703 3.870067,0.719618 1.338586,0.110025 2.52994,0.119038 3.281289,0.04476 0.156631,0.476318 0.286677,0.963942 0.389078,1.452997 0.102545,0.489761 0.175296,0.981416 0.223797,1.466768 -1.019373,-0.327377 -2.31598,-0.689328 -3.739229,-1.039822 -1.660796,-0.408998 -3.181696,-0.722867 -4.3039,-0.89866 0.01721,-0.460672 0.07521,-0.935448 0.185928,-1.404793 0.02705,-0.11462 0.05999,-0.227422 0.09297,-0.340863 z m -0.272012,2.575455 c 1.05777,0.350922 2.467698,0.751017 4.0319,1.136228 1.547652,0.381134 2.97111,0.679799 4.066319,0.860781 0.0013,0.03528 0.0024,0.07159 0.0034,0.10673 0.02988,0.918327 -0.03811,1.797166 -0.154935,2.592676 -0.0108,0.07334 -0.02287,0.141593 -0.03443,0.213474 -1.023637,-0.485365 -2.327748,-1.050698 -3.766774,-1.621716 -1.41991,-0.563426 -2.741065,-1.040087 -3.81154,-1.387572 -0.05735,-0.207612 -0.114014,-0.423817 -0.161821,-0.650756 -0.08298,-0.393837 -0.144766,-0.813985 -0.172156,-1.249845 z"
     id="path3960"
     style="fill:#ffffff;stroke:#ffffff;stroke-width:0.02993729px;stroke-linecap:butt;stroke-linejoin:miter;stroke-opacity:1" /></svg>